<svg width="53" height="19" viewBox="0 0 53 19" fill="none" xmlns="http://www.w3.org/2000/svg">
<path d="M7.84094 1.62743H11.2802V13.1024C11.2802 14.1631 11.0418 15.0846 10.565 15.8667C10.0936 16.6489 9.43737 17.2515 8.5963 17.6747C7.75522 18.098 6.77755 18.3096 5.66326 18.3096C4.67219 18.3096 3.77219 18.1355 2.96326 17.7872C2.15969 17.4337 1.52219 16.898 1.05076 16.1801C0.579331 15.4569 0.346296 14.5489 0.351653 13.456H3.81505C3.82576 13.8899 3.91415 14.2622 4.08022 14.573C4.25165 14.8783 4.48469 15.114 4.77933 15.2801C5.07933 15.4408 5.4329 15.5212 5.84005 15.5212C6.26862 15.5212 6.63022 15.4301 6.92487 15.248C7.22487 15.0605 7.45255 14.7872 7.6079 14.4283C7.76326 14.0694 7.84094 13.6274 7.84094 13.1024V1.62743Z" fill="black"/>
<path d="M35.8272 8.49796V11.214H13.1987V8.49796H35.8272Z" fill="black"/>
<path d="M40.0198 18.8721L38.4528 17.8114L50.2412 0.87207L51.8082 1.93278L40.0198 18.8721ZM52.8528 9.856C52.8528 11.6506 52.5127 13.1774 51.8323 14.4364C51.1573 15.6953 50.2359 16.6569 49.068 17.3212C47.9055 17.9801 46.5984 18.3096 45.1466 18.3096C43.6841 18.3096 42.3716 17.9774 41.2091 17.3131C40.0466 16.6489 39.1278 15.6872 38.4528 14.4283C37.7778 13.1694 37.4403 11.6453 37.4403 9.856C37.4403 8.06136 37.7778 6.53457 38.4528 5.27564C39.1278 4.01671 40.0466 3.05778 41.2091 2.39886C42.3716 1.73457 43.6841 1.40243 45.1466 1.40243C46.5984 1.40243 47.9055 1.73457 49.068 2.39886C50.2359 3.05778 51.1573 4.01671 51.8323 5.27564C52.5127 6.53457 52.8528 8.06136 52.8528 9.856ZM49.3252 9.856C49.3252 8.6935 49.151 7.71314 48.8028 6.91493C48.46 6.11671 47.9752 5.51136 47.3484 5.09886C46.7216 4.68636 45.9877 4.48011 45.1466 4.48011C44.3055 4.48011 43.5716 4.68636 42.9448 5.09886C42.318 5.51136 41.8305 6.11671 41.4823 6.91493C41.1394 7.71314 40.968 8.6935 40.968 9.856C40.968 11.0185 41.1394 11.9989 41.4823 12.7971C41.8305 13.5953 42.318 14.2006 42.9448 14.6131C43.5716 15.0256 44.3055 15.2319 45.1466 15.2319C45.9877 15.2319 46.7216 15.0256 47.3484 14.6131C47.9752 14.2006 48.46 13.5953 48.8028 12.7971C49.151 11.9989 49.3252 11.0185 49.3252 9.856Z" fill="black"/>
</svg>
